<mxfile host="app.diagrams.net" agent="Mozilla/5.0 (Windows NT 10.0; Win64; x64) AppleWebKit/537.36 (KHTML, like Gecko) Chrome/136.0.0.0 Safari/537.36" version="27.0.9">
  <diagram name="Page-1" id="qQxBh3YEpVyQJp5FQEEK">
    <mxGraphModel dx="872" dy="473" grid="1" gridSize="10" guides="1" tooltips="1" connect="1" arrows="1" fold="1" page="1" pageScale="1" pageWidth="850" pageHeight="1100" math="0" shadow="0">
      <root>
        <mxCell id="0" />
        <mxCell id="1" parent="0" />
        <mxCell id="UoK4NNgb7Zfku3vqllFy-1" value="User" style="shape=umlActor;verticalLabelPosition=bottom;verticalAlign=top;html=1;outlineConnect=0;" vertex="1" parent="1">
          <mxGeometry x="210" y="230" width="30" height="60" as="geometry" />
        </mxCell>
        <mxCell id="UoK4NNgb7Zfku3vqllFy-2" value="" style="rounded=0;whiteSpace=wrap;html=1;" vertex="1" parent="1">
          <mxGeometry x="270" y="10" width="410" height="640" as="geometry" />
        </mxCell>
        <mxCell id="UoK4NNgb7Zfku3vqllFy-11" style="edgeStyle=orthogonalEdgeStyle;rounded=0;orthogonalLoop=1;jettySize=auto;html=1;exitX=0.5;exitY=1;exitDx=0;exitDy=0;entryX=0.5;entryY=0;entryDx=0;entryDy=0;" edge="1" parent="1" source="UoK4NNgb7Zfku3vqllFy-3" target="UoK4NNgb7Zfku3vqllFy-4">
          <mxGeometry relative="1" as="geometry" />
        </mxCell>
        <mxCell id="UoK4NNgb7Zfku3vqllFy-12" value="Include" style="edgeLabel;html=1;align=center;verticalAlign=middle;resizable=0;points=[];" vertex="1" connectable="0" parent="UoK4NNgb7Zfku3vqllFy-11">
          <mxGeometry x="-0.2" y="-4" relative="1" as="geometry">
            <mxPoint as="offset" />
          </mxGeometry>
        </mxCell>
        <mxCell id="UoK4NNgb7Zfku3vqllFy-3" value="Koneksi Database" style="ellipse;whiteSpace=wrap;html=1;" vertex="1" parent="1">
          <mxGeometry x="415" y="30" width="120" height="80" as="geometry" />
        </mxCell>
        <mxCell id="UoK4NNgb7Zfku3vqllFy-13" style="edgeStyle=orthogonalEdgeStyle;rounded=0;orthogonalLoop=1;jettySize=auto;html=1;exitX=0.5;exitY=1;exitDx=0;exitDy=0;entryX=0.5;entryY=0;entryDx=0;entryDy=0;" edge="1" parent="1" source="UoK4NNgb7Zfku3vqllFy-4" target="UoK4NNgb7Zfku3vqllFy-10">
          <mxGeometry relative="1" as="geometry" />
        </mxCell>
        <mxCell id="UoK4NNgb7Zfku3vqllFy-14" value="Include" style="edgeLabel;html=1;align=center;verticalAlign=middle;resizable=0;points=[];" vertex="1" connectable="0" parent="UoK4NNgb7Zfku3vqllFy-13">
          <mxGeometry y="-2" relative="1" as="geometry">
            <mxPoint as="offset" />
          </mxGeometry>
        </mxCell>
        <mxCell id="UoK4NNgb7Zfku3vqllFy-4" value="Administrasi Siswa" style="ellipse;whiteSpace=wrap;html=1;" vertex="1" parent="1">
          <mxGeometry x="415" y="140" width="120" height="80" as="geometry" />
        </mxCell>
        <mxCell id="UoK4NNgb7Zfku3vqllFy-15" style="rounded=0;orthogonalLoop=1;jettySize=auto;html=1;exitX=0;exitY=0;exitDx=0;exitDy=0;entryX=0.5;entryY=1;entryDx=0;entryDy=0;" edge="1" parent="1" source="UoK4NNgb7Zfku3vqllFy-5" target="UoK4NNgb7Zfku3vqllFy-10">
          <mxGeometry relative="1" as="geometry" />
        </mxCell>
        <mxCell id="UoK4NNgb7Zfku3vqllFy-23" value="Incude" style="edgeLabel;html=1;align=center;verticalAlign=middle;resizable=0;points=[];" vertex="1" connectable="0" parent="UoK4NNgb7Zfku3vqllFy-15">
          <mxGeometry x="-0.1075" y="4" relative="1" as="geometry">
            <mxPoint as="offset" />
          </mxGeometry>
        </mxCell>
        <mxCell id="UoK4NNgb7Zfku3vqllFy-5" value="CRUD Siswa" style="ellipse;whiteSpace=wrap;html=1;" vertex="1" parent="1">
          <mxGeometry x="530" y="340" width="120" height="80" as="geometry" />
        </mxCell>
        <mxCell id="UoK4NNgb7Zfku3vqllFy-17" style="rounded=0;orthogonalLoop=1;jettySize=auto;html=1;exitX=0;exitY=0;exitDx=0;exitDy=0;entryX=0.5;entryY=1;entryDx=0;entryDy=0;" edge="1" parent="1" source="UoK4NNgb7Zfku3vqllFy-7" target="UoK4NNgb7Zfku3vqllFy-10">
          <mxGeometry relative="1" as="geometry" />
        </mxCell>
        <mxCell id="UoK4NNgb7Zfku3vqllFy-22" value="Include" style="edgeLabel;html=1;align=center;verticalAlign=middle;resizable=0;points=[];" vertex="1" connectable="0" parent="UoK4NNgb7Zfku3vqllFy-17">
          <mxGeometry x="-0.2813" y="-3" relative="1" as="geometry">
            <mxPoint as="offset" />
          </mxGeometry>
        </mxCell>
        <mxCell id="UoK4NNgb7Zfku3vqllFy-7" value="Management Siswa via tabel" style="ellipse;whiteSpace=wrap;html=1;" vertex="1" parent="1">
          <mxGeometry x="520" y="450" width="120" height="80" as="geometry" />
        </mxCell>
        <mxCell id="UoK4NNgb7Zfku3vqllFy-16" style="rounded=0;orthogonalLoop=1;jettySize=auto;html=1;exitX=1;exitY=0;exitDx=0;exitDy=0;" edge="1" parent="1" source="UoK4NNgb7Zfku3vqllFy-8">
          <mxGeometry relative="1" as="geometry">
            <mxPoint x="480" y="330" as="targetPoint" />
          </mxGeometry>
        </mxCell>
        <mxCell id="UoK4NNgb7Zfku3vqllFy-21" value="Extend" style="edgeLabel;html=1;align=center;verticalAlign=middle;resizable=0;points=[];" vertex="1" connectable="0" parent="UoK4NNgb7Zfku3vqllFy-16">
          <mxGeometry x="-0.1502" y="1" relative="1" as="geometry">
            <mxPoint as="offset" />
          </mxGeometry>
        </mxCell>
        <mxCell id="UoK4NNgb7Zfku3vqllFy-8" value="Searching Siswa" style="ellipse;whiteSpace=wrap;html=1;" vertex="1" parent="1">
          <mxGeometry x="305" y="360" width="120" height="80" as="geometry" />
        </mxCell>
        <mxCell id="UoK4NNgb7Zfku3vqllFy-18" style="rounded=0;orthogonalLoop=1;jettySize=auto;html=1;exitX=1;exitY=0;exitDx=0;exitDy=0;" edge="1" parent="1" source="UoK4NNgb7Zfku3vqllFy-9">
          <mxGeometry relative="1" as="geometry">
            <mxPoint x="480" y="330" as="targetPoint" />
          </mxGeometry>
        </mxCell>
        <mxCell id="UoK4NNgb7Zfku3vqllFy-19" value="Include" style="edgeLabel;html=1;align=center;verticalAlign=middle;resizable=0;points=[];" vertex="1" connectable="0" parent="UoK4NNgb7Zfku3vqllFy-18">
          <mxGeometry x="0.3522" y="-1" relative="1" as="geometry">
            <mxPoint as="offset" />
          </mxGeometry>
        </mxCell>
        <mxCell id="UoK4NNgb7Zfku3vqllFy-9" value="Pagination" style="ellipse;whiteSpace=wrap;html=1;" vertex="1" parent="1">
          <mxGeometry x="330" y="490" width="120" height="80" as="geometry" />
        </mxCell>
        <mxCell id="UoK4NNgb7Zfku3vqllFy-10" value="Validasi Id" style="ellipse;whiteSpace=wrap;html=1;" vertex="1" parent="1">
          <mxGeometry x="415" y="250" width="120" height="80" as="geometry" />
        </mxCell>
        <mxCell id="UoK4NNgb7Zfku3vqllFy-26" style="rounded=0;orthogonalLoop=1;jettySize=auto;html=1;exitX=0.5;exitY=0.5;exitDx=0;exitDy=0;exitPerimeter=0;entryX=0.008;entryY=0.613;entryDx=0;entryDy=0;entryPerimeter=0;" edge="1" parent="1" source="UoK4NNgb7Zfku3vqllFy-1" target="UoK4NNgb7Zfku3vqllFy-4">
          <mxGeometry relative="1" as="geometry" />
        </mxCell>
      </root>
    </mxGraphModel>
  </diagram>
</mxfile>
